<svg width="807" height="250" viewBox="0 0 807 250" fill="none" xmlns="http://www.w3.org/2000/svg">
<path d="M9.12683 140H27.6679V105.721H49.0836C70.0682 105.721 84.3692 91.7787 84.3692 71.0817V70.9379C84.3692 50.169 70.0682 36.2991 49.0836 36.2991H9.12683V140ZM44.4843 51.4626C57.7793 51.4626 65.5407 58.5772 65.5407 71.0098V71.1535C65.5407 83.5862 57.7793 90.7726 44.4843 90.7726H27.6679V51.4626H44.4843ZM120.402 141.294C130.463 141.294 138.943 136.263 143.327 128.286H143.758V140H161.653V87.6106C161.653 72.3034 149.364 62.2423 130.32 62.2423C110.988 62.2423 99.274 72.3752 98.196 85.8858L98.1242 86.7482H114.725L114.869 86.1014C116.018 80.496 121.193 76.5434 129.673 76.5434C138.728 76.5434 143.758 81.2146 143.758 88.9041V94.1503L123.852 95.372C105.383 96.5218 94.8903 104.643 94.8903 118.153V118.297C94.8903 131.879 105.167 141.294 120.402 141.294ZM112.713 117.578V117.506C112.713 111.47 117.528 107.661 126.367 107.086L143.758 106.008V111.757C143.758 120.812 135.997 127.639 125.72 127.639C117.887 127.639 112.713 123.83 112.713 117.578ZM192.943 52.8999C198.548 52.8999 202.86 48.4443 202.86 43.1263C202.86 37.6646 198.548 33.2808 192.943 33.2808C187.337 33.2808 182.953 37.6646 182.953 43.1263C182.953 48.4443 187.337 52.8999 192.943 52.8999ZM183.959 140H201.854V63.8233H183.959V140ZM224.448 140H242.342V95.8032C242.342 84.8079 248.882 77.3339 259.159 77.3339C269.364 77.3339 274.394 83.4424 274.394 94.294V140H292.288V90.7008C292.288 73.022 282.73 62.2423 265.986 62.2423C254.416 62.2423 246.654 67.5603 242.702 75.7529H242.342V63.8233H224.448V140ZM342.335 141.509C345.928 141.509 349.09 141.15 351.174 140.862V127.424C349.953 127.496 348.587 127.711 346.863 127.711C340.323 127.711 337.017 125.34 337.017 117.866V77.6214H351.174V63.8233H337.017V44.4917H318.835V63.8233H308.056V77.6214H318.835V119.375C318.835 135.041 326.381 141.509 342.335 141.509ZM370.446 140V40.8381H384.355V65.3066H429.686C434.322 65.3066 438.271 66.9379 441.534 70.2003C444.796 73.4628 446.427 77.4121 446.427 82.0482V123.258C446.427 127.895 444.796 131.844 441.534 135.106C438.271 138.369 434.322 140 429.686 140H370.446ZM389.12 126.092H427.754C429.643 126.092 430.888 125.791 431.489 125.19C432.176 124.503 432.519 123.215 432.519 121.327V83.98C432.519 82.0912 432.176 80.8463 431.489 80.2453C430.888 79.5585 429.643 79.215 427.754 79.215H389.12C387.231 79.215 385.943 79.5585 385.256 80.2453C384.655 80.8463 384.355 82.0912 384.355 83.98V121.327C384.355 123.215 384.655 124.503 385.256 125.19C385.943 125.791 387.231 126.092 389.12 126.092ZM462.524 140V82.0482C462.524 77.4121 464.155 73.4628 467.418 70.2003C470.68 66.9379 474.63 65.3066 479.266 65.3066H520.991V79.215H481.197C479.309 79.215 478.021 79.5585 477.334 80.2453C476.733 80.8463 476.433 82.0912 476.433 83.98V140H462.524ZM552.608 140C547.972 140 544.023 138.369 540.76 135.106C537.498 131.844 535.866 127.895 535.866 123.258V82.0482C535.866 77.4121 537.498 73.4628 540.76 70.2003C544.023 66.9379 547.972 65.3066 552.608 65.3066H595.106C599.742 65.3066 603.691 66.9379 606.954 70.2003C610.216 73.4628 611.848 77.4121 611.848 82.0482V109.608H549.775V121.327C549.775 123.215 550.075 124.503 550.676 125.19C551.363 125.791 552.651 126.092 554.54 126.092H611.848V140H552.608ZM549.775 96.6006H597.81V83.98C597.81 82.0912 597.51 80.8463 596.909 80.2453C596.308 79.5585 595.063 79.215 593.174 79.215H554.54C552.651 79.215 551.363 79.5585 550.676 80.2453C550.075 80.8463 549.775 82.0912 549.775 83.98V96.6006ZM648.342 140C643.706 140 639.757 138.369 636.494 135.106C633.232 131.844 631.6 127.895 631.6 123.258V95.6991H693.544V83.98C693.544 82.0912 693.244 80.8463 692.643 80.2453C692.042 79.5585 690.797 79.215 688.908 79.215H631.6V65.3066H690.84C695.476 65.3066 699.425 66.9379 702.688 70.2003C705.95 73.4628 707.582 77.4121 707.582 82.0482V140H648.342ZM650.274 126.092H693.544V108.706H645.509V121.327C645.509 123.215 645.809 124.503 646.41 125.19C647.097 125.791 648.385 126.092 650.274 126.092ZM727.212 140V40.8381H741.12V95.6991H757.862L785.807 65.3066H801.776V67.8823L770.225 102.653L801.776 137.424V140H785.807L757.862 109.608H741.12V140H727.212Z" fill="#181818"/>
<circle cx="26.8806" cy="223.119" r="26.8806" fill="#E73F3F"/>
<circle cx="134.403" cy="223.119" r="26.8806" fill="#F49238"/>
<circle cx="241.926" cy="223.119" r="26.8806" fill="#FFD467"/>
<circle cx="349.448" cy="223.119" r="26.8806" fill="#7ED95E"/>
<circle cx="456.97" cy="223.119" r="26.8806" fill="#4791E9"/>
<circle cx="564.493" cy="223.119" r="26.8806" fill="#B550D9"/>
<circle cx="672.015" cy="223.119" r="26.8806" fill="#AC5D4B"/>
<circle cx="779.538" cy="223.119" r="26.8806" fill="#383838"/>
</svg>
