<svg width="263" height="82" viewBox="0 0 263 82" fill="none" xmlns="http://www.w3.org/2000/svg">
<path d="M2.97656 46H9.02344V34.8203H16.0078C22.8516 34.8203 27.5156 30.2734 27.5156 23.5234V23.4766C27.5156 16.7031 22.8516 12.1797 16.0078 12.1797H2.97656V46ZM14.5078 17.125C18.8438 17.125 21.375 19.4453 21.375 23.5V23.5469C21.375 27.6016 18.8438 29.9453 14.5078 29.9453H9.02344V17.125H14.5078ZM39.2672 46.4219C42.5484 46.4219 45.3141 44.7812 46.7437 42.1797H46.8844V46H52.7203V28.9141C52.7203 23.9219 48.7125 20.6406 42.5016 20.6406C36.1969 20.6406 32.3766 23.9453 32.025 28.3516L32.0016 28.6328H37.4156L37.4625 28.4219C37.8375 26.5938 39.525 25.3047 42.2906 25.3047C45.2437 25.3047 46.8844 26.8281 46.8844 29.3359V31.0469L40.3922 31.4453C34.3687 31.8203 30.9469 34.4688 30.9469 38.875V38.9219C30.9469 43.3516 34.2984 46.4219 39.2672 46.4219ZM36.7594 38.6875V38.6641C36.7594 36.6953 38.3297 35.4531 41.2125 35.2656L46.8844 34.9141V36.7891C46.8844 39.7422 44.3531 41.9688 41.0016 41.9688C38.4469 41.9688 36.7594 40.7266 36.7594 38.6875ZM62.925 17.5938C64.7531 17.5938 66.1594 16.1406 66.1594 14.4062C66.1594 12.625 64.7531 11.1953 62.925 11.1953C61.0969 11.1953 59.6672 12.625 59.6672 14.4062C59.6672 16.1406 61.0969 17.5938 62.925 17.5938ZM59.9953 46H65.8312V21.1562H59.9953V46ZM73.2 46H79.0359V31.5859C79.0359 28 81.1687 25.5625 84.5203 25.5625C87.8484 25.5625 89.4891 27.5547 89.4891 31.0938V46H95.325V29.9219C95.325 24.1562 92.2078 20.6406 86.7469 20.6406C82.9734 20.6406 80.4422 22.375 79.1531 25.0469H79.0359V21.1562H73.2V46ZM111.647 46.4922C112.819 46.4922 113.85 46.375 114.53 46.2812V41.8984C114.131 41.9219 113.686 41.9922 113.123 41.9922C110.991 41.9922 109.912 41.2188 109.912 38.7812V25.6562H114.53V21.1562H109.912V14.8516H103.983V21.1562H100.467V25.6562H103.983V39.2734C103.983 44.3828 106.444 46.4922 111.647 46.4922ZM120.815 46V13.66H125.351V21.64H140.135C141.647 21.64 142.935 22.172 143.999 23.236C145.063 24.3 145.595 25.588 145.595 27.1V40.54C145.595 42.052 145.063 43.34 143.999 44.404C142.935 45.468 141.647 46 140.135 46H120.815ZM126.905 41.464H139.505C140.121 41.464 140.527 41.366 140.723 41.17C140.947 40.946 141.059 40.526 141.059 39.91V27.73C141.059 27.114 140.947 26.708 140.723 26.512C140.527 26.288 140.121 26.176 139.505 26.176H126.905C126.289 26.176 125.869 26.288 125.645 26.512C125.449 26.708 125.351 27.114 125.351 27.73V39.91C125.351 40.526 125.449 40.946 125.645 41.17C125.869 41.366 126.289 41.464 126.905 41.464ZM150.845 46V27.1C150.845 25.588 151.377 24.3 152.441 23.236C153.505 22.172 154.793 21.64 156.305 21.64H169.913V26.176H156.935C156.319 26.176 155.899 26.288 155.675 26.512C155.479 26.708 155.381 27.114 155.381 27.73V46H150.845ZM180.224 46C178.712 46 177.424 45.468 176.36 44.404C175.296 43.34 174.764 42.052 174.764 40.54V27.1C174.764 25.588 175.296 24.3 176.36 23.236C177.424 22.172 178.712 21.64 180.224 21.64H194.084C195.596 21.64 196.884 22.172 197.948 23.236C199.012 24.3 199.544 25.588 199.544 27.1V36.088H179.3V39.91C179.3 40.526 179.398 40.946 179.594 41.17C179.818 41.366 180.238 41.464 180.854 41.464H199.544V46H180.224ZM179.3 31.846H194.966V27.73C194.966 27.114 194.868 26.708 194.672 26.512C194.476 26.288 194.07 26.176 193.454 26.176H180.854C180.238 26.176 179.818 26.288 179.594 26.512C179.398 26.708 179.3 27.114 179.3 27.73V31.846ZM211.446 46C209.934 46 208.646 45.468 207.582 44.404C206.518 43.34 205.986 42.052 205.986 40.54V31.552H226.188V27.73C226.188 27.114 226.09 26.708 225.894 26.512C225.698 26.288 225.292 26.176 224.676 26.176H205.986V21.64H225.306C226.818 21.64 228.106 22.172 229.17 23.236C230.234 24.3 230.766 25.588 230.766 27.1V46H211.446ZM212.076 41.464H226.188V35.794H210.522V39.91C210.522 40.526 210.62 40.946 210.816 41.17C211.04 41.366 211.46 41.464 212.076 41.464ZM237.168 46V13.66H241.704V31.552H247.164L256.278 21.64H261.486V22.48L251.196 33.82L261.486 45.16V46H256.278L247.164 36.088H241.704V46H237.168Z" fill="#181818"/>
<circle cx="8.76667" cy="72.7667" r="8.76667" fill="#E73F3F"/>
<circle cx="43.8336" cy="72.7667" r="8.76667" fill="#F49238"/>
<circle cx="78.9" cy="72.7667" r="8.76667" fill="#FFD467"/>
<circle cx="113.967" cy="72.7667" r="8.76667" fill="#7ED95E"/>
<circle cx="149.033" cy="72.7667" r="8.76667" fill="#4791E9"/>
<circle cx="184.1" cy="72.7667" r="8.76667" fill="#B550D9"/>
<circle cx="219.167" cy="72.7667" r="8.76667" fill="#AC5D4B"/>
<circle cx="254.233" cy="72.7667" r="8.76667" fill="#383838"/>
</svg>
